<svg width="12" height="12" viewBox="0 0 12 12" fill="none" xmlns="http://www.w3.org/2000/svg">
<path d="M0 5.49999C0 5.22385 0.223858 4.99999 0.5 4.99999H4.99999V0.499999C4.99999 0.223857 5.22385 0 5.49999 0H6.49999C6.77613 0 6.99999 0.223858 6.99999 0.5V4.99999H11.5C11.7761 4.99999 12 5.22385 12 5.49999V6.49999C12 6.77614 11.7761 6.99999 11.5 6.99999H6.99999V11.5C6.99999 11.7761 6.77613 12 6.49999 12H5.49999C5.22385 12 4.99999 11.7761 4.99999 11.5V6.99999H0.5C0.223858 6.99999 0 6.77614 0 6.49999V5.49999Z" fill="#004B88"/>
</svg>
